# xmcd
#
# Track frame offsets:
#	150
#	27173
#	48080
#	63833
#	88581
#	104064
#	120785
#	142139
#	159878
#	175343
#	194877
#	216292
#	231186
#	248579
#	263673
#	278279
#
# Disc length: 3931 seconds
#
# Revision: 1
# Processed by: cddbd v1.5.1PL2 Copyright (c) Steve Scherf et al.
# Submitted via: audiograbber 1.82.00
#
DISCID=d70f5910
DTITLE=LEBESIS GIANNIS - LEBESIS GIANNIS_48 Rempetika_2
DYEAR=2000
DGENRE=GREEK
TTITLE0=THS TRIANTAFYLLIAS TA FYLLA
TTITLE1=RIXNW ZARIA
TTITLE2=EXASA MANTHLI
TTITLE3=MHLO MOY KAI MANTARINI
TTITLE4=SACRAMENTO-BOSTON-N_YORKH
TTITLE5=GYALITZARIANH
TTITLE6=ESBHSE FWS MOY O SEBNTAS
TTITLE7=TWRA TO BRADY ME DROSIA
TTITLE8=MANAKI MOY
TTITLE9=AMAN GYALA
TTITLE10=PSARADES
TTITLE11=TA MALLIA SOY KI H ELIA SOY
TTITLE12=AIBALIWTIKO
TTITLE13=EXE GEIA - PANTA GEIA
TTITLE14=GRHGORO TATAYLIANO
TTITLE15=MNHMES
EXTD=
EXTT0=
EXTT1=
EXTT2=
EXTT3=
EXTT4=
EXTT5=
EXTT6=
EXTT7=
EXTT8=
EXTT9=
EXTT10=
EXTT11=
EXTT12=
EXTT13=
EXTT14=
EXTT15=
PLAYORDER=
